<?xml version="1.0" standalone="no"?>
<!DOCTYPE svg PUBLIC "-//W3C//DTD SVG 20010904//EN"
 "http://www.w3.org/TR/2001/REC-SVG-20010904/DTD/svg10.dtd">
<svg version="1.0" xmlns="http://www.w3.org/2000/svg"
 width="1500.000000pt" height="600.000000pt" viewBox="0 0 1500.000000 600.000000"
 preserveAspectRatio="xMidYMid meet">
<metadata>
Created by potrace 1.15, written by Peter Selinger 2001-2017
</metadata>
<g transform="translate(0.000000,600.000000) scale(0.100000,-0.100000)"
fill="#000000" stroke="none">
<path d="M1 5460 c0 -416 3 -540 12 -540 9 0 9 -2 0 -8 -20 -12 -16 -182 4
-204 9 -10 11 -18 5 -18 -6 0 -13 6 -15 13 -3 6 -6 3 -6 -9 -1 -25 46 -51 62
-35 7 7 16 7 29 0 10 -5 23 -7 28 -4 6 3 10 1 10 -4 0 -6 -5 -11 -11 -11 -7 0
-9 -10 -7 -25 3 -14 2 -25 -2 -25 -5 0 -6 -10 -3 -22 4 -21 3 -21 -9 -6 -13
15 -15 15 -26 -2 -16 -26 -5 -55 14 -39 18 15 32 3 16 -13 -18 -18 -15 -68 3
-68 8 0 15 -9 15 -20 0 -12 -7 -20 -17 -20 -16 -1 -16 -2 -2 -10 9 -5 15 -19
14 -32 -1 -17 -10 -24 -36 -29 -20 -5 -36 -3 -40 3 -4 5 -9 3 -12 -6 -7 -19 6
-28 27 -20 20 8 21 -3 1 -22 -11 -11 -12 -21 -5 -40 8 -19 7 -25 -2 -22 -7 3
-15 15 -19 29 -4 14 -7 17 -8 7 -1 -9 -7 -18 -13 -20 -10 -4 -10 -11 0 -34 9
-19 10 -30 3 -32 -6 -2 -11 -15 -11 -28 0 -14 4 -23 8 -20 4 2 17 -9 27 -25
20 -29 35 -37 35 -19 0 6 5 10 10 10 6 0 10 -8 10 -17 0 -10 4 -14 8 -8 10 14
42 18 42 5 0 -5 -8 -10 -17 -10 -15 0 -16 -2 -3 -9 8 -6 17 -8 21 -5 4 2 9 -2
12 -8 3 -10 9 -10 27 0 12 8 19 9 16 4 -3 -6 -3 -12 1 -15 5 -2 3 -2 -4 -1 -7
2 -15 -1 -18 -6 -4 -6 -1 -10 5 -10 14 0 8 -25 -6 -25 -5 -1 -19 -6 -30 -13
-12 -6 -24 -9 -26 -6 -3 2 -17 -14 -32 -37 -15 -23 -23 -38 -17 -35 6 4 11 2
11 -5 0 -7 8 -21 17 -32 18 -19 17 -20 -11 -13 -29 7 -52 24 -53 39 -2 14 -13
21 -13 8 0 -7 -4 -9 -10 -6 -6 4 -10 -62 -10 -185 1 -105 4 -189 8 -186 4 2
13 -3 21 -11 12 -13 11 -14 -6 -9 -18 6 -20 1 -21 -39 -2 -38 0 -44 15 -39 16
5 16 4 2 -5 -13 -8 -16 -36 -17 -175 -1 -151 1 -164 16 -160 15 5 15 4 0 -6
-15 -9 -18 -26 -18 -95 0 -53 4 -85 11 -85 5 0 7 5 4 10 -9 15 4 12 21 -5 8
-8 21 -12 29 -9 8 4 15 1 15 -5 0 -10 -14 -15 -33 -12 -5 1 -6 -3 -3 -8 10
-15 -4 -39 -25 -44 -15 -4 -19 -14 -19 -44 0 -21 5 -44 12 -51 9 -9 9 -15 0
-24 -14 -14 -17 -154 -3 -162 5 -4 11 0 14 6 2 7 8 10 13 5 4 -4 -2 -14 -14
-23 -20 -13 -21 -23 -21 -115 0 -74 3 -98 12 -92 9 5 9 3 1 -8 -17 -22 -19
-539 -2 -539 10 0 10 -2 1 -8 -16 -10 -15 -184 1 -194 8 -6 7 -8 -1 -8 -9 0
-12 -104 -12 -442 0 -286 3 -438 9 -428 8 12 10 10 10 -8 0 -13 -4 -21 -9 -17
-14 8 -13 -406 1 -422 7 -9 7 -17 -1 -27 -8 -9 -11 -48 -9 -112 l3 -99 3079
-3 c2267 -1 3082 1 3092 9 10 8 18 9 27 0 18 -15 5131 -16 5122 -1 -3 6 -2 10
4 10 5 0 13 -4 16 -10 4 -6 645 -10 1830 -10 l1825 0 0 2824 c0 2247 -3 2825
-13 2829 -9 4 -9 6 1 6 9 1 12 42 12 171 l0 170 -203 0 c-149 0 -207 -3 -216
-12 -11 -11 -14 -10 -18 0 -4 10 -112 12 -515 12 -498 -1 -510 -1 -515 -20 -3
-11 -10 -20 -15 -20 -6 0 -8 9 -5 20 5 20 1 20 -2373 20 -1874 0 -2380 -3
-2383 -13 -4 -9 -6 -9 -6 1 -1 10 -46 12 -202 12 -166 -1 -200 -4 -195 -15 3
-9 0 -12 -9 -8 -8 3 -13 8 -11 12 3 4 -4 7 -14 8 -11 1 -19 -4 -17 -10 1 -8
-10 -12 -30 -11 -18 1 -33 -3 -33 -8 0 -5 -12 -20 -27 -34 -14 -13 -23 -27
-20 -31 4 -3 -8 -17 -25 -30 -39 -28 -47 -29 -23 -3 15 17 16 23 5 50 -10 23
-10 34 -1 43 23 23 12 37 -31 37 -40 0 -42 -1 -19 -13 30 -15 28 -33 -4 -29
-25 3 -36 -20 -15 -33 14 -8 -11 -34 -28 -28 -7 3 -11 12 -10 20 2 9 -7 19
-19 24 -18 6 -23 5 -23 -7 0 -10 -7 -13 -27 -9 -25 6 -26 5 -9 -5 13 -9 24 -9
43 -1 30 14 29 15 29 -9 0 -12 -5 -19 -13 -16 -7 3 -10 -1 -7 -8 3 -8 1 -17
-5 -21 -6 -3 -11 1 -11 9 0 15 -10 19 -27 14 -10 -4 -11 -68 -1 -68 4 0 12 8
18 18 11 16 11 16 6 -1 -5 -14 -1 -16 19 -11 14 3 25 2 25 -4 0 -5 -9 -12 -21
-15 -12 -3 -18 -10 -15 -16 4 -5 2 -12 -3 -15 -5 -4 -12 -2 -16 4 -11 19 -33
10 -37 -15 -3 -14 -1 -25 3 -25 5 0 9 -7 9 -15 0 -8 -5 -15 -11 -15 -18 0 -50
21 -44 30 3 4 -14 6 -37 3 -38 -6 -41 -4 -36 14 4 16 1 21 -18 21 -28 0 -40
-25 -14 -33 10 -3 21 -13 25 -23 3 -9 3 -13 -1 -10 -4 4 -16 3 -27 -3 -12 -7
-17 -7 -13 -1 3 6 1 22 -5 35 -13 28 6 81 21 57 6 -9 11 -7 19 9 10 19 9 21
-11 21 -21 1 -21 1 -5 11 10 6 21 9 24 6 11 -12 46 38 50 72 3 20 7 38 8 39 2
2 -4 12 -13 23 -13 15 -30 19 -73 19 -37 0 -59 -5 -62 -12 -4 -10 -8 -10 -15
1 -10 14 -57 12 -136 -6 -20 -4 -27 -3 -22 6 4 6 2 11 -3 11 -14 0 -14 -17 -1
-25 6 -3 10 -11 10 -16 0 -6 -3 -8 -7 -6 -5 3 -26 -10 -48 -29 -32 -28 -37
-36 -25 -43 17 -12 38 3 51 37 5 13 14 20 20 16 8 -4 8 -9 0 -17 -15 -15 -14
-23 6 -42 12 -13 13 -19 4 -24 -7 -4 5 -8 26 -9 26 -1 44 5 61 21 13 12 27 21
30 20 11 -4 8 31 -3 39 -6 5 -1 16 12 30 22 21 24 21 40 5 16 -16 16 -17 -10
-17 -25 0 -27 -3 -22 -31 4 -22 1 -35 -10 -43 -9 -6 -18 -24 -19 -40 -2 -16
-8 -31 -14 -35 -5 -3 -11 -15 -13 -26 -3 -11 -8 -19 -12 -17 -4 1 -6 3 -5 5 4
7 -24 47 -31 43 -4 -3 -17 3 -29 14 -12 12 -23 16 -27 10 -3 -6 -1 -10 4 -10
21 0 10 -20 -14 -26 -14 -3 -25 -11 -25 -16 0 -6 8 -7 18 -3 13 5 14 3 6 -5
-9 -9 -17 -9 -32 -1 -16 8 -21 7 -26 -4 -3 -8 -2 -15 3 -15 5 0 11 -10 15 -22
7 -28 -9 -47 -26 -30 -9 9 -9 12 1 12 11 0 11 3 1 14 -13 17 -40 10 -40 -9 0
-7 -5 -15 -11 -17 -6 -2 1 -16 14 -30 14 -15 28 -35 31 -45 8 -26 46 -47 59
-34 6 6 19 11 29 11 11 0 15 5 12 15 -4 10 0 15 14 15 11 0 22 7 26 15 3 8 11
15 18 15 9 0 8 -3 -2 -10 -9 -6 -10 -10 -3 -10 7 0 16 8 21 17 8 13 11 10 17
-17 5 -23 4 -35 -4 -38 -6 -2 -11 -12 -11 -23 0 -10 -5 -19 -11 -19 -5 0 -7
-5 -4 -11 5 -6 12 -4 21 8 14 17 15 17 9 -4 -4 -14 0 -25 9 -30 10 -5 12 -13
7 -22 -7 -11 -10 -9 -16 8 -3 11 -11 21 -16 21 -6 0 -7 -6 -2 -12 12 -20 13
-40 2 -62 -10 -21 -10 -21 6 -1 16 20 16 20 37 -5 11 -14 27 -24 34 -22 30 6
12 -15 -20 -25 -30 -9 -34 -9 -29 6 4 11 1 10 -10 -4 -9 -11 -17 -26 -17 -32
0 -7 -5 -13 -11 -13 -6 0 -17 -7 -26 -15 -8 -8 -19 -12 -25 -9 -5 4 -2 -5 7
-20 19 -29 15 -34 -10 -10 -9 9 -18 14 -21 11 -3 -2 1 -11 9 -18 7 -8 12 -20
9 -27 -4 -14 -52 -16 -52 -2 0 6 4 10 8 10 5 0 9 7 9 15 0 8 -2 13 -5 10 -2
-2 -13 6 -23 18 -16 18 -18 19 -13 3 6 -16 4 -17 -14 -7 -28 15 -35 14 -28 -4
3 -9 0 -15 -9 -15 -18 0 -28 17 -16 25 6 3 8 12 4 20 -3 11 2 15 17 15 19 0
20 2 10 15 -14 17 -50 20 -50 4 0 -6 9 -8 21 -4 21 7 21 7 -1 -15 -18 -18 -24
-20 -31 -9 -12 19 -11 28 4 44 20 20 82 24 82 5 0 -23 32 -24 45 -1 13 26 33
28 25 2 -3 -12 0 -21 9 -24 19 -8 33 13 16 23 -7 4 -9 13 -5 20 5 9 4 11 -3 6
-7 -4 -12 0 -13 11 0 10 -3 13 -6 6 -2 -7 -14 -13 -24 -13 -13 0 -18 4 -13 12
4 7 3 8 -5 4 -6 -4 -19 -2 -27 5 -12 10 -13 9 -8 -5 3 -9 1 -16 -4 -16 -6 0
-13 10 -15 23 l-4 22 -2 -22 c-1 -16 -7 -23 -22 -23 -11 0 -18 4 -15 9 3 5 -1
11 -9 15 -9 3 -15 0 -15 -10 0 -11 -6 -14 -22 -9 -21 6 -22 5 -5 -8 22 -18 22
-42 -1 -65 -10 -10 -16 -24 -14 -30 6 -18 20 -14 18 4 0 9 4 19 11 21 8 3 10
-7 7 -33 -4 -30 -2 -35 11 -30 10 3 13 2 10 -4 -4 -7 3 -9 19 -6 18 3 26 0 26
-10 0 -8 6 -17 14 -20 9 -3 12 -12 9 -22 -5 -11 -2 -14 10 -9 23 9 22 -9 -1
-25 -18 -13 -37 -46 -33 -61 0 -4 -8 -17 -19 -29 l-20 -22 0 23 c0 18 -2 20
-14 9 -8 -7 -12 -15 -10 -17 7 -8 -17 -41 -31 -41 -20 0 -19 17 3 29 16 10 15
10 -3 11 -20 1 -20 1 -1 15 17 13 17 15 3 15 -9 0 -24 15 -33 33 -16 29 -16
31 -1 18 12 -9 17 -10 17 -2 0 7 4 9 10 6 5 -3 9 2 8 12 -3 38 2 52 17 47 8
-4 15 -1 15 5 0 6 8 11 18 12 10 0 4 7 -17 17 -25 12 -35 14 -38 5 -6 -16 -53
5 -53 24 0 7 -4 13 -9 13 -17 0 1 -38 20 -43 10 -3 19 -10 19 -15 0 -19 -50
13 -52 33 -4 51 -3 61 12 72 8 6 12 15 7 19 -4 4 -7 2 -7 -4 0 -7 -7 -12 -15
-12 -8 0 -15 7 -15 15 0 8 5 15 11 15 6 0 3 7 -5 16 -9 8 -14 20 -11 25 4 5
-1 9 -10 9 -9 0 -13 5 -10 10 10 16 -26 24 -47 11 -31 -20 -55 -6 -50 29 3 18
0 30 -7 30 -6 0 -19 16 -28 35 -13 27 -14 40 -5 59 8 19 8 27 0 32 -7 4 -8 3
-4 -4 4 -7 2 -12 -3 -12 -6 0 -11 9 -11 20 0 11 -5 20 -11 20 -5 0 -7 5 -4 10
11 17 -5 49 -21 43 -7 -3 -14 -1 -14 5 0 5 7 12 15 16 8 3 15 0 15 -7 0 -8 3
-7 9 2 11 17 -8 51 -28 51 -11 0 -11 -3 -1 -15 9 -10 9 -15 1 -15 -6 0 -11 5
-11 10 0 6 -6 10 -14 10 -8 0 -18 5 -22 12 -5 8 0 9 14 6 12 -4 22 -3 22 1 0
5 21 8 48 8 70 1 131 7 130 13 -2 24 4 40 12 35 14 -9 13 1 -5 35 -13 25 -13
29 1 34 8 3 12 10 9 16 -10 15 3 12 25 -7 11 -10 20 -28 20 -40 0 -30 8 -29
35 3 14 16 28 24 35 19 9 -6 9 -9 0 -15 -17 -10 -3 -30 21 -30 10 0 19 -4 19
-10 0 -5 -7 -7 -15 -4 -8 4 -15 1 -15 -4 0 -21 17 -21 38 -1 12 11 22 15 22 9
0 -5 5 -10 10 -10 7 0 7 7 0 21 -7 11 -10 22 -8 23 2 1 21 10 43 20 26 11 46
29 57 51 l17 34 -819 1 c-810 0 -819 0 -825 -20 -7 -21 -25 -28 -25 -10 0 6 5
10 10 10 6 0 10 4 10 10 0 6 -735 10 -2160 10 -1406 0 -2160 -4 -2160 -10 0
-6 -5 -10 -11 -10 -5 0 -7 5 -4 10 4 7 -21 10 -74 9 -44 -1 -78 -5 -76 -10 3
-4 1 -10 -5 -14 -5 -3 -10 1 -10 9 0 14 -46 15 -387 15 -261 0 -392 -4 -401
-11 -9 -8 -16 -8 -24 0 -9 9 -93 12 -290 12 l-278 0 1 -540z m13034 195 c-1
-14 2 -28 6 -31 5 -3 9 0 9 7 0 8 4 8 15 -1 13 -11 14 -10 9 4 -4 11 -1 16 11
16 9 0 16 -7 14 -17 -1 -10 -1 -27 0 -37 1 -18 2 -18 21 -1 11 10 20 13 20 7
0 -17 -40 -41 -58 -35 -12 5 -14 1 -10 -20 6 -30 -3 -35 -22 -12 -7 9 -15 13
-18 11 -2 -3 -13 -1 -23 4 -12 7 -20 7 -24 0 -3 -5 3 -10 14 -10 15 0 21 -9
27 -42 4 -24 9 -35 12 -25 2 13 13 17 43 17 21 0 39 -4 39 -9 0 -5 10 -12 23
-16 l22 -8 -22 -4 c-13 -2 -23 -8 -23 -13 0 -5 7 -7 15 -4 8 4 15 1 15 -5 0
-6 -12 -16 -27 -22 -17 -7 -23 -13 -15 -16 10 -4 10 -8 1 -19 -8 -10 -8 -14 0
-14 6 0 11 -4 11 -10 0 -5 -12 -10 -26 -10 -23 0 -25 -2 -14 -15 18 -22 6 -29
-20 -13 -18 10 -24 10 -27 1 -3 -7 -11 -13 -19 -13 -7 0 -20 -13 -29 -30 -11
-21 -23 -30 -40 -30 -13 0 -27 -4 -30 -10 -13 -21 -25 -8 -26 28 0 34 -1 35
-11 15 -6 -13 -17 -23 -25 -23 -7 0 -13 -10 -13 -21 0 -17 -3 -19 -14 -10 -7
6 -21 8 -30 5 -12 -5 -19 0 -23 15 -8 31 -47 28 -62 -6 -9 -20 -15 -24 -21
-14 -4 8 -13 10 -19 6 -7 -4 -18 -1 -26 5 -10 8 -15 9 -15 2 0 -6 7 -15 16
-20 11 -6 13 -11 5 -16 -14 -9 -31 1 -31 20 0 8 -6 14 -12 15 -7 0 0 5 15 11
21 7 27 15 22 27 -16 37 -17 51 -4 51 8 0 7 4 -5 13 -9 7 -18 22 -18 34 -1 11
-7 19 -13 16 -7 -2 -11 9 -11 32 1 23 5 34 13 31 16 -6 5 55 -11 66 -8 5 -7 8
2 8 6 0 12 7 12 15 0 8 5 15 12 15 6 0 8 3 5 6 -4 4 3 15 14 25 19 16 20 19 5
25 -9 3 -16 10 -16 15 0 15 30 10 36 -6 4 -8 10 -15 16 -15 5 0 6 6 1 13 -12
19 -14 47 -3 47 6 0 10 -9 10 -20 0 -29 35 -25 58 7 17 24 22 26 36 14 12 -10
14 -16 6 -21 -7 -4 -1 -9 14 -12 14 -3 26 -2 26 2 0 5 8 6 19 3 13 -3 20 2 24
18 5 20 7 20 21 6 18 -18 21 -31 5 -21 -6 3 -15 0 -20 -7 -14 -23 -10 -32 8
-18 15 13 16 11 10 -10 -6 -23 -5 -23 13 -5 36 36 50 45 60 39 6 -4 7 -11 4
-17 -4 -6 1 -8 11 -6 10 1 20 10 22 18 4 13 3 13 -6 0 -13 -19 -14 0 -1 20 6
10 10 11 10 3 0 -7 5 -13 11 -13 6 0 8 9 4 20 -3 11 -2 20 3 20 6 0 9 -11 7
-25z m-9718 -150 c-9 -8 -20 -15 -26 -15 -15 0 -14 -12 2 -35 11 -14 16 -15
22 -5 6 9 4 11 -5 5 -8 -5 -11 -3 -8 6 7 20 33 17 32 -3 -1 -13 6 -15 35 -12
69 9 86 11 114 12 17 1 26 6 22 13 -9 13 24 45 45 44 8 -1 14 -6 13 -12 -1 -6
4 -14 13 -17 8 -3 12 -2 9 4 -3 6 -1 10 4 10 6 0 11 -4 11 -9 0 -12 49 -20 52
-9 2 5 11 6 21 3 9 -4 15 -11 12 -15 -3 -5 4 -6 15 -3 10 3 26 -2 35 -10 19
-20 19 -31 0 -23 -8 3 -15 1 -15 -5 0 -18 -28 -39 -44 -33 -10 4 -16 1 -17 -7
0 -8 -5 -3 -11 11 -8 19 -12 21 -15 9 -2 -9 -15 -21 -28 -27 -22 -10 -25 -9
-25 8 0 12 5 17 13 14 8 -3 14 2 14 10 0 8 -5 12 -10 9 -5 -3 -12 -1 -16 4 -3
5 -22 13 -41 16 -24 5 -30 4 -20 -2 8 -6 12 -12 10 -15 -7 -6 -87 -18 -125
-18 -28 -1 -28 -1 13 -20 23 -11 39 -24 36 -29 -3 -5 0 -10 5 -10 6 -1 16 -2
23 -3 16 -1 23 -26 7 -26 -7 0 -24 -10 -38 -22 -17 -16 -21 -17 -11 -4 13 16
12 20 -6 35 -11 9 -23 24 -27 35 -4 11 -13 16 -22 12 -10 -3 -15 1 -15 13 0
20 -9 21 -50 4 -17 -7 -29 -7 -38 0 -7 5 -15 7 -18 4 -9 -9 18 -32 39 -33 51
-2 54 -4 54 -34 0 -26 -3 -29 -21 -24 -12 4 -31 16 -43 28 -12 12 -25 20 -29
18 -3 -2 -14 8 -24 23 -17 25 -18 25 -23 6 -3 -15 -10 -19 -22 -15 -10 4 -21
-1 -29 -12 -13 -16 -10 -20 27 -36 22 -10 37 -21 34 -24 -3 -3 -16 1 -28 10
-16 11 -27 12 -40 5 -10 -5 -23 -8 -30 -7 -6 2 -13 -10 -14 -25 -3 -23 1 -31
25 -41 18 -7 26 -16 21 -24 -5 -8 -12 -6 -24 8 -19 22 -25 24 -47 10 -12 -8
-12 -10 2 -15 11 -5 14 -15 11 -41 -4 -28 -1 -34 14 -36 10 0 23 -2 29 -2 6
-1 20 -8 30 -16 18 -14 18 -14 5 3 -13 16 -13 19 0 17 28 -4 40 0 33 12 -4 6
-3 8 3 5 6 -4 24 0 39 9 l29 15 -32 -3 c-18 -2 -32 0 -33 5 -2 45 0 49 17 36
10 -8 14 -9 10 -2 -4 6 -3 14 2 17 5 4 13 2 16 -4 4 -7 11 -7 18 -2 7 5 26 12
42 16 30 7 30 7 8 -9 -13 -9 -23 -25 -23 -35 0 -11 -12 -24 -31 -32 -24 -10
-29 -18 -26 -36 3 -15 0 -22 -8 -19 -6 3 -18 1 -26 -4 -11 -7 -10 -9 6 -9 11
0 25 -10 30 -22 6 -13 16 -22 23 -20 7 1 12 -5 12 -13 0 -8 -5 -15 -12 -15 -6
0 -8 -3 -5 -6 4 -4 13 -1 21 5 11 9 16 9 21 0 12 -18 -16 -30 -60 -25 -22 2
-34 2 -27 -1 16 -6 16 -23 -1 -23 -6 0 -18 13 -25 29 -9 21 -18 28 -32 24 -11
-3 -20 -12 -20 -19 0 -8 -7 -14 -15 -14 -12 0 -14 -7 -9 -27 7 -25 6 -27 -9
-15 -22 19 -31 50 -18 66 14 17 4 46 -16 46 -10 0 -12 6 -8 20 5 15 0 21 -19
26 -14 3 -25 9 -24 13 1 3 -4 17 -11 31 -10 22 -18 25 -47 22 -19 -2 -34 0
-34 6 0 6 -9 8 -20 5 -14 -4 -20 0 -20 11 0 10 4 15 9 11 17 -10 41 25 35 51
-4 14 -2 24 5 24 6 0 8 -7 5 -15 -4 -8 -1 -15 5 -15 6 0 11 8 11 18 1 16 1 16
11 0 5 -10 16 -15 24 -12 9 4 15 0 15 -7 1 -9 8 -5 20 9 15 18 25 22 42 16 21
-6 22 -6 8 12 -8 10 -27 32 -43 47 -23 23 -26 31 -16 43 10 13 14 12 30 -2 18
-16 19 -16 19 -1 0 10 -5 17 -11 17 -14 0 -41 28 -32 32 5 2 24 3 45 3 26 0
34 3 27 11 -6 8 -4 14 6 18 9 3 13 10 10 16 -3 5 3 10 15 10 12 0 30 5 41 10
14 8 21 8 24 -2 8 -21 53 -19 61 4 3 11 12 17 19 14 8 -3 19 2 26 11 8 9 15
11 17 4 2 -6 -3 -18 -11 -26z m394 -255 c6 0 8 -4 5 -9 -3 -4 6 -7 20 -5 21 2
25 -1 21 -16 -3 -13 0 -16 14 -13 11 3 26 0 34 -7 13 -11 18 -10 31 6 15 18
15 18 11 -3 -4 -16 0 -23 10 -23 10 0 14 -6 10 -20 -5 -19 3 -24 29 -21 14 2
27 -27 18 -40 -3 -5 3 -9 14 -9 10 0 24 -11 30 -24 10 -23 9 -24 -24 -21 -25
3 -34 0 -34 -12 0 -8 -6 -13 -12 -10 -7 2 -12 15 -10 29 3 21 -2 27 -24 32
-14 4 -33 14 -42 22 -11 11 -17 12 -22 4 -5 -8 -9 -4 -13 9 -6 24 -30 27 -49
7 -9 -9 -19 -11 -33 -4 -17 8 -21 20 -23 75 -1 55 1 64 14 59 9 -3 20 -6 25
-6z m2787 -142 c9 -9 12 -9 12 2 0 13 14 6 16 -8 0 -4 4 -15 9 -25 10 -25 -43
-71 -63 -55 -7 6 -15 8 -19 4 -3 -3 -2 -6 4 -6 6 0 9 -9 6 -20 -7 -27 -23 -25
-23 2 0 17 -3 19 -12 10 -6 -6 -12 -31 -12 -54 -1 -24 -6 -43 -13 -46 -15 -4
-16 3 -4 46 10 33 4 38 -36 33 -18 -3 -16 16 2 23 8 3 15 13 15 23 0 10 16 29
35 42 19 13 35 27 35 32 0 13 34 11 48 -3z m-2378 -80 c0 -6 7 -8 15 -5 17 7
30 -9 15 -18 -6 -4 -8 -10 -5 -15 3 -5 -1 -15 -9 -22 -24 -24 -28 -55 -9 -62
15 -6 15 -8 3 -16 -8 -6 -10 -10 -5 -10 6 0 12 -12 13 -26 2 -32 -22 -28 -26
5 -3 17 -9 22 -23 18 -19 -5 -20 -4 -4 19 15 24 15 25 -15 37 -17 8 -27 17
-23 22 5 4 -1 3 -12 -3 -12 -6 -26 -7 -36 -1 -13 6 -16 4 -15 -9 0 -11 -7 -18
-21 -20 -13 -2 -23 1 -23 6 0 5 -10 9 -22 8 -24 -1 -58 -44 -58 -74 0 -12 2
-14 8 -4 6 9 16 10 32 4 15 -6 19 -11 12 -16 -7 -4 -12 -13 -12 -19 0 -8 4 -7
9 2 8 12 12 12 25 2 11 -9 20 -10 35 -2 11 6 28 8 38 5 15 -5 15 -4 3 5 -21
14 -6 25 18 12 17 -9 19 -8 15 9 -3 11 -1 20 5 20 5 0 12 -11 14 -25 4 -17 1
-25 -9 -25 -8 0 -12 -4 -8 -9 3 -5 1 -12 -5 -16 -17 -10 -11 -25 8 -18 16 6
16 6 0 -10 -15 -15 -53 -14 -44 2 2 3 -6 15 -17 26 l-20 20 12 -22 c9 -17 8
-25 -5 -37 -8 -9 -22 -16 -29 -16 -8 0 -17 -5 -21 -11 -4 -7 -1 -10 7 -7 8 3
22 1 32 -4 13 -7 17 -5 17 10 0 27 9 32 36 20 29 -13 26 -32 -4 -36 -12 -2
-20 -7 -17 -12 8 -13 -21 -6 -39 9 -14 11 -16 11 -16 -3 0 -19 -11 -21 -29 -3
-10 10 -15 8 -27 -7 -8 -11 -14 -23 -14 -27 0 -15 30 -17 44 -4 14 15 36 20
36 9 0 -11 -29 -34 -44 -34 -9 0 -16 -4 -16 -10 0 -5 -8 -11 -17 -11 -17 -1
-17 -2 0 -6 13 -3 16 -12 13 -38 -3 -20 0 -36 7 -39 7 -2 2 -8 -11 -12 -16 -5
-21 -12 -17 -25 6 -18 -9 -27 -18 -11 -2 4 -3 2 -1 -4 3 -17 -32 -58 -40 -45
-4 6 -2 11 3 11 6 0 11 12 10 28 0 16 -3 21 -6 12 -4 -8 -15 -23 -26 -33 -16
-13 -22 -14 -28 -5 -10 15 -2 28 17 28 8 0 12 5 9 10 -4 6 -11 8 -16 5 -5 -4
-9 -2 -9 4 0 5 9 13 20 16 17 5 18 10 9 27 -8 15 -8 23 1 32 8 8 10 7 5 -6 -4
-10 -3 -18 3 -18 20 0 17 36 -4 56 -15 14 -27 18 -37 12 -10 -5 -18 -4 -23 3
-4 8 -3 9 4 5 7 -4 12 -1 12 9 0 10 5 13 12 9 7 -4 8 -3 4 5 -4 6 -13 8 -19 4
-7 -4 -16 -8 -22 -8 -15 -1 -7 -28 13 -44 12 -9 13 -15 5 -18 -9 -3 -8 -12 5
-31 l17 -27 -27 17 c-15 10 -29 14 -33 9 -3 -5 1 -11 7 -14 10 -3 10 -7 0 -20
-10 -12 -11 -21 -2 -36 9 -17 8 -21 -4 -21 -9 0 -23 -11 -32 -26 -9 -14 -23
-23 -30 -20 -8 3 -11 -2 -8 -18 3 -16 -4 -26 -25 -39 -38 -22 -41 -22 -41 8 0
18 5 25 19 25 10 0 21 7 25 15 3 8 1 15 -4 15 -6 0 -10 -4 -10 -10 0 -5 -7
-10 -15 -10 -25 0 -17 18 13 28 l27 10 -29 1 c-28 1 -29 1 -11 21 13 14 22 17
30 10 17 -14 47 14 39 35 -4 8 -1 15 6 15 6 0 9 4 5 9 -3 5 2 16 10 24 8 9 15
23 15 31 0 9 4 16 8 16 4 0 8 16 8 35 0 19 -3 35 -7 35 -4 0 -6 -13 -5 -30 l2
-30 -19 21 c-16 17 -17 23 -6 30 10 6 6 9 -15 9 -28 0 -28 1 -12 19 16 18 16
20 -6 36 -15 11 -17 15 -5 12 9 -4 17 -2 17 3 0 20 -51 14 -63 -6 -11 -19 -28
-18 -20 2 3 9 0 20 -8 25 -12 7 -12 9 0 9 8 0 11 6 7 16 -4 11 1 18 14 21 11
3 17 10 13 16 -3 5 -7 20 -9 33 -2 20 1 21 28 14 33 -10 68 -2 47 10 -9 6 -5
15 13 33 15 15 24 35 23 51 0 19 3 25 13 21 7 -3 21 -5 30 -5 15 -1 14 -3 -3
-18 -24 -21 -32 -47 -12 -39 11 4 13 0 10 -14 -4 -13 0 -19 11 -19 9 0 16 -7
16 -15 0 -8 -6 -15 -12 -15 -9 0 -8 -3 2 -10 12 -8 12 -10 -4 -16 -10 -4 -21
-2 -26 5 -5 9 -9 8 -14 -4 -3 -9 -10 -14 -16 -10 -5 3 -5 -6 1 -25 13 -36 23
-40 17 -6 -4 17 -1 23 9 19 17 -7 16 -15 -2 -39 -12 -15 -16 -16 -24 -5 -5 7
-15 11 -22 9 -9 -4 -4 -10 14 -19 27 -12 30 -11 47 11 10 14 22 21 26 17 4 -4
-1 -16 -10 -26 -11 -12 -15 -25 -10 -33 4 -7 4 -10 -1 -6 -10 9 -35 -10 -35
-26 0 -6 5 -4 10 4 5 8 10 11 10 6 0 -5 9 -1 20 9 13 12 20 14 20 5 0 -6 6
-10 14 -7 7 3 17 2 22 -3 5 -5 17 -2 28 5 17 13 17 15 3 21 -9 3 -14 10 -11
15 3 5 13 5 24 -1 16 -9 22 -6 34 17 11 23 12 30 0 40 -8 8 -15 9 -19 3 -9
-15 -25 -12 -25 5 0 8 -4 15 -10 15 -5 0 -10 5 -10 10 0 6 7 10 15 10 9 0 14
8 12 22 -1 14 4 23 13 23 9 0 16 11 18 27 2 20 -3 30 -20 39 -21 11 -22 11 -9
-5 8 -9 11 -19 7 -23 -10 -10 -16 2 -23 42 -6 35 -5 37 15 26 15 -8 22 -8 25
2 3 6 6 4 6 -7 1 -15 4 -16 15 -7 19 16 66 24 66 12 0 -5 -6 -12 -12 -14 -8
-3 -6 -6 5 -6 11 -1 17 6 17 19 0 11 5 20 10 20 10 0 14 -21 11 -47 -1 -8 5
-10 15 -6 12 4 15 3 10 -5 -9 -15 -4 -15 29 0 14 6 25 15 25 20 0 20 32 56 46
51 8 -3 14 -10 14 -15z m4480 -643 c8 -14 24 -28 37 -31 13 -4 23 -9 23 -13 0
-4 18 -6 39 -4 22 1 43 -2 46 -7 3 -6 11 -10 16 -10 6 0 7 5 4 10 -9 15 0 12
23 -8 22 -19 24 -53 2 -60 -7 -3 -8 -7 -3 -11 6 -3 13 -18 16 -32 7 -26 6 -27
-43 -31 -25 -3 -25 -10 0 -26 12 -7 18 -18 14 -24 -5 -8 -2 -9 10 -5 14 6 15
3 6 -13 -6 -11 -16 -20 -23 -21 -9 0 -8 -2 1 -6 10 -4 9 -10 -4 -30 -16 -25
-16 -26 4 -21 24 7 20 -17 -4 -26 -9 -3 -13 -10 -10 -15 3 -4 -5 -8 -17 -7
-12 1 -25 -3 -29 -9 -5 -6 -8 -6 -8 2 0 7 -7 10 -17 6 -15 -5 -14 -3 2 10 20
16 20 16 -2 17 -14 0 -23 -6 -23 -15 0 -18 -29 -19 -52 -1 -25 19 -22 26 10
22 15 -2 20 -1 11 1 -22 6 -43 53 -29 67 12 12 14 37 3 35 -22 -4 -35 3 -30
15 4 10 -3 14 -31 12 -35 -1 -37 1 -36 29 2 39 -12 64 -39 74 -20 8 -19 10 15
24 35 15 37 18 28 41 -6 18 -6 26 1 26 6 0 8 4 5 8 -3 5 2 18 10 30 21 30 57
28 74 -3z m332 10 c2 2 5 -7 6 -20 1 -14 -4 -25 -11 -25 -6 0 -4 -5 6 -11 10
-6 21 -8 24 -5 3 3 14 1 24 -5 15 -8 17 -6 12 8 -6 16 -5 16 10 4 15 -12 17
-11 17 3 0 14 3 14 20 4 13 -8 19 -20 16 -30 -2 -10 0 -21 5 -24 5 -3 9 -1 9
4 0 5 13 9 30 8 18 -1 30 -6 30 -15 0 -11 3 -11 15 -1 13 11 14 10 9 -4 -3 -9
-1 -16 5 -16 6 0 11 -7 11 -16 0 -9 -5 -12 -12 -8 -7 4 -8 3 -4 -4 4 -7 14
-12 22 -12 8 0 14 -9 14 -19 0 -26 17 -36 36 -20 8 6 17 9 21 5 3 -3 2 -6 -4
-6 -6 0 -13 -7 -17 -15 -4 -13 -2 -13 14 -5 21 11 41 13 24 2 -18 -12 -43 -71
-32 -74 7 -3 7 -11 -1 -26 -10 -18 -9 -22 4 -22 8 0 15 -4 15 -10 0 -5 -9 -10
-20 -10 -11 0 -20 -7 -20 -15 0 -8 8 -15 18 -15 13 0 14 -2 4 -9 -9 -5 -11
-18 -6 -37 5 -24 4 -27 -7 -16 -11 10 -16 8 -27 -10 -9 -16 -12 -17 -8 -4 5
13 2 17 -9 12 -8 -3 -15 -1 -15 5 0 6 -5 7 -10 4 -6 -4 -7 -11 -4 -17 4 -7 2
-8 -4 -4 -19 11 -14 33 8 39 12 3 20 14 20 27 0 17 -4 20 -20 15 -25 -8 -26
10 -2 25 11 7 12 10 2 7 -20 -6 -52 11 -45 24 4 5 -1 9 -9 9 -9 0 -16 5 -16
10 0 6 -10 10 -21 10 -18 0 -21 5 -17 31 3 21 0 33 -9 36 -20 8 -35 -10 -39
-48 -3 -25 -1 -30 7 -22 14 14 36 -4 36 -30 0 -11 -9 -17 -26 -18 -18 -1 -20
-3 -8 -6 20 -5 18 -24 -3 -31 -8 -3 -10 0 -5 8 6 10 4 12 -8 7 -10 -3 -17 -2
-17 4 0 6 -4 8 -9 5 -8 -5 -36 42 -33 56 1 4 -5 5 -14 1 -13 -5 -15 -2 -9 15
4 13 2 22 -4 22 -6 0 -11 9 -11 21 0 12 5 19 13 17 6 -3 12 -11 12 -19 0 -8
11 -15 25 -16 14 -1 19 0 12 3 -10 5 -10 9 0 22 11 13 11 14 -2 10 -8 -3 -32
4 -52 15 -36 20 -49 37 -28 37 5 0 6 8 3 18 -7 18 -41 52 -53 52 -4 0 -5 17
-3 38 2 20 4 47 4 60 1 18 6 21 25 18 13 -3 24 -1 24 4 0 5 13 5 29 0 16 -4
31 -7 33 -5z m-3312 -211 c0 -14 7 -15 39 -10 29 4 40 2 45 -9 3 -8 12 -15 21
-15 8 0 15 -4 15 -10 0 -5 -7 -10 -15 -10 -16 0 -41 -38 -37 -57 2 -7 -4 -13
-13 -13 -9 0 -13 -4 -10 -10 9 -15 -4 -12 -21 5 -9 8 -24 15 -35 15 -10 0 -19
5 -19 10 0 6 -6 10 -14 8 -17 -3 -18 1 -10 42 4 17 13 30 21 30 9 0 13 6 10
14 -6 15 1 26 15 26 4 0 8 -7 8 -16z m-3014 -339 c6 -14 8 -13 20 2 13 17 13
17 14 -1 0 -12 5 -16 16 -12 8 3 12 2 9 -4 -3 -6 -2 -10 3 -10 15 0 22 13 12
24 -6 8 -3 12 11 12 10 0 19 -6 19 -14 0 -8 5 -10 13 -5 22 13 49 14 44 1 -2
-7 -10 -12 -16 -10 -6 1 -11 -3 -11 -9 0 -5 -4 -8 -9 -4 -5 3 -13 0 -17 -6 -3
-6 -1 -15 6 -19 7 -4 10 -15 7 -23 -3 -9 1 -18 9 -21 22 -9 16 -33 -9 -38 -13
-3 -34 -1 -47 4 -30 11 -39 2 -15 -16 11 -8 14 -15 7 -20 -6 -3 -18 2 -28 11
-12 13 -19 14 -22 5 -5 -15 -32 -16 -32 -1 0 8 -6 7 -17 -2 -15 -13 -16 -11
-9 14 7 29 -8 38 -18 10 -5 -12 -10 -13 -18 -5 -8 8 -8 15 1 26 9 10 9 16 1
21 -12 7 20 45 38 45 5 0 15 7 22 15 8 9 8 15 2 15 -6 0 -13 -6 -15 -12 -3 -7
-5 -1 -4 15 1 29 24 37 33 12z m3364 -93 c0 -5 7 -9 15 -9 8 0 15 4 15 9 0 4
12 8 28 8 21 0 24 -2 12 -10 -11 -7 -4 -10 27 -10 32 0 46 -5 57 -22 22 -31
21 -59 -1 -51 -11 4 -14 3 -9 -5 5 -8 2 -10 -9 -6 -11 5 -14 2 -9 -10 7 -18
-20 -23 -31 -6 -3 6 -11 10 -16 10 -6 0 -7 -4 -4 -10 3 -6 -1 -7 -9 -4 -9 3
-16 1 -16 -5 0 -6 5 -11 10 -11 6 0 10 -5 10 -11 0 -6 -7 -8 -16 -5 -10 4 -23
-3 -35 -16 -11 -15 -18 -18 -19 -9 0 8 -7 11 -19 8 -12 -3 -22 1 -25 10 -9 24
-7 35 6 27 8 -5 9 -2 5 9 -9 23 7 29 38 15 23 -10 29 -9 48 12 12 12 17 20 10
16 -6 -3 -15 -1 -18 4 -5 8 -13 6 -26 -6 -16 -14 -21 -15 -35 -3 -14 11 -18
10 -34 -11 l-18 -24 3 44 c2 25 4 48 4 52 1 4 7 5 15 2 8 -3 12 -12 10 -19 -3
-7 0 -16 7 -21 8 -5 11 -2 6 8 -3 9 0 21 6 27 8 8 8 11 -1 11 -7 0 -12 5 -12
10 0 6 7 10 15 10 8 0 15 -4 15 -8z m3753 -54 c31 -15 36 -38 7 -38 -27 0 -17
-21 20 -42 33 -19 39 -38 13 -38 -27 0 -47 -16 -38 -30 6 -9 9 -9 15 -1 4 7
17 13 28 14 15 1 22 8 22 21 0 16 3 17 12 8 14 -14 32 -16 24 -3 -4 5 0 12 6
15 7 3 -2 5 -19 3 -39 -4 -42 4 -8 20 17 8 27 8 32 1 10 -17 13 -62 4 -68 -12
-8 -24 -50 -14 -50 5 0 6 -26 2 -57 -3 -32 -2 -62 2 -68 15 -16 10 -23 -13
-18 l-23 6 24 -22 c13 -11 19 -21 13 -21 -6 0 -10 -9 -9 -20 1 -12 7 -18 14
-16 16 6 17 -10 2 -19 -6 -4 -8 -13 -5 -21 3 -8 -1 -14 -9 -14 -18 0 -31 20
-13 20 10 1 9 4 -2 13 -20 15 -20 45 0 57 11 7 12 10 2 10 -7 0 -20 -7 -28
-15 -9 -8 -20 -15 -27 -15 -6 0 -2 7 9 15 19 15 19 15 -1 8 -36 -12 -47 -43
-15 -43 11 0 20 -5 20 -11 0 -6 -8 -9 -19 -6 -13 3 -24 -5 -37 -27 -10 -17
-18 -33 -17 -37 1 -3 -13 -6 -32 -6 -43 -1 -62 -12 -44 -24 12 -8 12 -10 0
-18 -8 -5 -10 -14 -6 -21 5 -8 4 -11 -3 -6 -6 3 -13 -6 -17 -24 -4 -16 -13
-30 -21 -30 -8 0 -14 -4 -14 -10 0 -5 5 -10 12 -10 6 0 9 -3 5 -6 -11 -12 -39
5 -30 18 11 19 10 118 -2 120 -5 0 -24 2 -42 3 -33 1 -60 15 -30 15 10 0 17 7
17 16 0 13 -6 11 -25 -10 -25 -28 -46 -37 -25 -11 10 12 10 21 1 41 -6 14 -7
23 -2 20 5 -4 12 7 16 24 7 31 19 38 31 19 3 -6 1 -15 -6 -19 -8 -5 -5 -9 9
-13 13 -3 21 0 21 7 0 20 -53 61 -77 60 -14 -1 -23 5 -23 13 0 8 4 12 10 8 5
-3 18 0 29 7 15 9 17 15 9 25 -18 22 0 28 23 7 l21 -19 -18 36 c-11 20 -21 35
-24 34 -5 -3 -6 25 -1 61 0 6 12 17 26 24 13 7 22 16 20 21 -3 4 3 5 13 2 10
-2 24 3 31 11 16 20 45 21 38 2 -6 -16 24 -43 58 -52 21 -5 25 -3 25 15 0 12
5 21 11 21 5 0 8 4 5 9 -3 5 -16 7 -29 3 -20 -5 -21 -4 -7 13 8 10 10 16 5 13
-6 -4 -16 2 -23 12 -8 14 -8 21 -1 26 6 4 15 1 19 -6 4 -7 13 -9 19 -6 16 10
14 26 -4 26 -8 0 -15 5 -15 10 0 17 28 11 39 -7 9 -16 10 -16 11 3 0 12 -7 24
-15 28 -18 7 -20 26 -2 26 7 0 25 -6 40 -12z m-1401 -716 c-9 -6 -10 -16 -3
-34 12 -32 31 -46 24 -18 -3 11 0 20 6 20 14 0 15 -37 1 -45 -6 -4 -8 -10 -5
-14 6 -11 -17 -41 -35 -45 -34 -7 -50 -19 -51 -40 -1 -16 -2 -17 -6 -3 -2 9
-13 17 -24 17 -10 0 -19 7 -19 15 0 18 27 20 33 3 2 -7 4 4 3 25 -1 27 -5 37
-16 36 -58 -5 -77 12 -61 54 7 17 16 23 33 22 12 -1 22 -8 21 -14 -2 -6 12
-11 35 -12 20 0 31 -3 25 -6 -18 -7 -16 -20 3 -27 9 -3 12 -2 9 5 -4 5 -1 17
7 26 9 12 9 15 1 9 -9 -5 -13 0 -13 13 0 15 6 21 23 21 15 0 18 -3 9 -8z m738
-157 c0 -7 7 -18 15 -25 13 -11 18 -10 30 6 14 17 14 17 4 -8 -7 -16 -17 -24
-26 -21 -7 3 -13 2 -12 -3 0 -5 -2 -19 -6 -31 -6 -19 -10 -21 -29 -11 -18 10
-19 9 -9 -3 7 -8 9 -26 6 -39 -4 -16 -3 -21 5 -16 7 4 12 12 12 17 0 13 70 82
76 76 3 -2 0 -16 -5 -31 -7 -17 -7 -26 -1 -26 6 0 8 -11 4 -25 -4 -15 -2 -25
5 -25 6 0 11 -4 11 -9 0 -4 -11 -7 -25 -6 -14 2 -25 -1 -25 -6 0 -5 4 -9 9 -9
5 0 17 -7 25 -16 18 -17 22 -59 5 -49 -6 4 -8 13 -5 20 4 10 -3 13 -26 10 -23
-3 -28 -1 -20 7 9 9 7 17 -6 32 -10 11 -11 16 -3 11 10 -5 12 -4 7 3 -10 17
-19 15 -34 -9 -10 -16 -10 -24 -2 -34 9 -11 6 -16 -15 -21 -32 -8 -47 4 -22
17 9 6 14 15 11 21 -4 6 0 14 7 19 11 7 11 9 1 9 -9 0 -11 7 -7 23 5 17 4 19
-4 7 -9 -13 -11 -12 -12 5 -1 16 -2 16 -6 3 -6 -22 -32 -31 -39 -13 -5 11 -11
12 -26 4 -11 -6 -22 -8 -26 -5 -10 11 17 30 56 41 30 8 38 16 40 38 2 19 -1
27 -13 27 -13 0 -14 3 -3 15 11 12 15 12 30 -6 9 -11 19 -15 22 -10 8 12 -3
41 -15 41 -5 0 -9 5 -9 11 0 6 7 9 14 6 11 -4 13 -1 9 11 -6 15 -5 15 10 3 9
-7 17 -19 17 -26z m381 21 c19 -7 40 -11 48 -8 8 3 11 0 7 -6 -4 -6 9 -27 29
-47 35 -37 44 -55 25 -55 -5 0 -10 -5 -10 -11 0 -6 7 -8 18 -5 15 7 16 6 1 -9
-9 -9 -25 -17 -37 -18 -11 0 -20 -6 -19 -12 1 -5 -6 -9 -15 -7 -21 3 -23 -9
-6 -26 9 -9 8 -12 -5 -12 -9 0 -17 -4 -17 -10 0 -5 7 -10 15 -10 26 0 16 -18
-15 -29 -18 -6 -30 -17 -30 -27 0 -14 -3 -15 -12 -6 -18 18 -32 14 -17 -5 12
-15 12 -16 -7 -11 -21 5 -21 5 -5 -36 8 -22 19 -42 23 -44 5 -2 8 -13 8 -25 0
-18 -2 -19 -10 -7 -5 8 -12 11 -16 7 -4 -4 -13 -2 -21 4 -10 9 -10 15 -2 25
13 16 -4 44 -27 44 -8 0 -13 3 -13 8 1 4 1 14 0 22 -1 13 -3 13 -11 0 -8 -12
-11 -12 -27 0 -32 26 -61 40 -65 30 -4 -12 -48 -1 -48 11 0 5 -10 19 -21 30
-15 15 -18 24 -10 28 6 4 9 14 6 23 -3 8 1 21 10 28 12 10 15 10 15 -4 0 -9 6
-16 13 -16 6 0 2 -8 -10 -18 -25 -19 -20 -36 15 -46 15 -5 22 -3 22 5 0 9 3
10 11 2 6 -6 19 -8 30 -6 19 5 18 6 -2 24 -28 24 -20 33 16 19 34 -13 45 -6
16 10 -12 6 -19 15 -16 21 11 17 -15 9 -35 -11 -25 -25 -33 -25 -25 -1 4 14 0
21 -12 24 -10 3 -3 5 15 6 17 0 32 6 32 12 0 7 11 9 29 6 23 -5 31 -1 41 18 7
13 9 28 6 34 -4 6 0 14 8 17 9 3 16 17 16 30 0 24 14 32 25 15 6 -11 51 -8 62
3 4 4 -3 9 -15 13 -12 3 -22 9 -22 14 0 12 1 11 41 -5z m-4055 -63 c-4 -43 -7
-49 -36 -61 -31 -12 -31 -14 -14 -27 17 -12 21 -11 34 11 20 34 31 30 23 -8
-8 -40 -28 -62 -49 -54 -8 3 -17 -1 -20 -8 -3 -8 -20 -17 -39 -20 -18 -4 -38
-13 -45 -21 -13 -16 -55 -21 -46 -7 5 9 -10 12 -51 12 -13 0 -23 5 -23 11 0 8
-4 8 -13 0 -10 -8 -17 -7 -26 2 -7 6 -12 8 -11 2 5 -25 -2 -24 -29 4 -16 16
-32 27 -35 24 -3 -4 -6 -1 -6 6 0 7 6 11 14 8 8 -3 21 0 30 6 12 10 14 20 7
50 -8 33 -7 38 6 32 12 -4 13 -2 6 7 -7 8 -7 22 -2 36 7 19 12 21 28 12 27
-14 34 -13 27 5 -7 19 8 19 24 0 6 -8 15 -14 18 -13 4 1 18 -4 31 -11 21 -12
26 -11 37 3 8 11 14 13 19 7 8 -13 56 -4 70 14 6 6 15 10 22 8 7 -3 20 0 30 6
10 6 19 11 20 11 1 0 1 -21 -1 -47z m2048 -155 c-5 -8 -2 -9 9 -5 26 10 30
-10 6 -27 -13 -9 -20 -22 -17 -33 5 -21 -3 -30 -50 -55 -30 -16 -65 -15 -89 5
-9 6 -13 6 -13 -2 0 -6 -7 -11 -15 -11 -17 0 -20 16 -5 25 6 3 10 15 10 26 0
10 5 19 10 19 6 0 10 -6 10 -14 0 -7 9 -16 20 -19 22 -6 28 8 6 16 -7 3 -16
15 -19 27 -4 16 -1 24 14 27 10 3 17 9 14 13 -6 10 33 45 41 37 4 -4 -1 -9
-10 -13 -27 -11 -18 -24 18 -24 29 0 35 4 41 27 6 24 8 26 16 10 6 -9 7 -22 3
-29z"/>
</g>
</svg>
